# Blender v2.79 (sub 0) OBJ File: 'bloc.blend'
# www.blender.org
mtllib solid.mtl
o Cube.002
v 1.000000 0.000000 -1.000000
v 1.000000 0.000000 1.000000
v -1.000000 0.000000 1.000000
v -1.000000 0.000000 -1.000000
v 1.000000 2.000000 -0.999999
v -1.000000 2.000000 -1.000000
v -1.000000 2.000000 1.000000
v 0.999999 2.000000 1.000001
vt 1.000000 1.000000
vt 1.000000 0.666667
vt -0.000000 0.666667
vt 0.000000 1.000000
vt 1.000000 1.000000
vt 0.000000 1.000000
vt -0.000000 0.666667
vt 1.000000 0.666667
vt 1.000000 0.666667
vt -0.000000 1.000000
vt 0.000000 0.666667
vt 1.000000 1.000000
vt -0.000000 1.000000
vt 1.000000 1.000000
vt 1.000000 0.666667
vt 0.000000 0.666667
vn 0.0000 -1.0000 -0.0000
vn 0.0000 1.0000 0.0000
vn 1.0000 0.0000 0.0000
vn -0.0000 -0.0000 1.0000
vn -1.0000 -0.0000 0.0000
vn 0.0000 0.0000 -1.0000
usemtl Material.002
s 1
f 1/1/1 2/2/1 3/3/1 4/4/1
f 5/5/2 6/6/2 7/7/2 8/8/2
f 1/9/3 5/5/3 8/10/3 2/11/3
f 2/2/4 8/12/4 7/13/4 3/3/4
f 3/3/5 7/13/5 6/14/5 4/15/5
f 5/5/6 1/9/6 4/16/6 6/6/6
